<svg width="14" height="14" viewBox="0 0 14 14" fill="none" xmlns="http://www.w3.org/2000/svg">
<path d="M7 0C10.8657 0 14 3.13396 14 7C14 10.866 10.8657 14 7 14C3.13396 14 0 10.866 0 7C0 3.13396 3.13396 0 7 0ZM3.56767 7.29167H6.84798C7.87918 7.29167 8.38268 8.54992 7.63613 9.26129C7.51975 9.37242 7.51508 9.55704 7.62621 9.67371C7.68367 9.73379 7.76038 9.76412 7.83767 9.76412C7.90971 9.76412 7.98233 9.73729 8.03862 9.68362L10.6333 7.21117C10.635 7.20942 10.6368 7.20767 10.6382 7.20621C10.6415 7.203 10.6447 7.1995 10.6479 7.196C10.68 7.16071 10.7036 7.11754 10.7153 7.06971C10.7173 7.06125 10.719 7.05279 10.7202 7.04433C10.7225 7.03004 10.7237 7.01517 10.7237 7C10.7237 6.98483 10.7225 6.96996 10.7202 6.95567C10.719 6.94692 10.7173 6.93846 10.7153 6.93029C10.7036 6.88246 10.68 6.83929 10.6479 6.804C10.6447 6.8005 10.6415 6.797 10.6382 6.79379C10.6368 6.79204 10.635 6.79058 10.6333 6.78883L8.03862 4.31638C7.92196 4.20525 7.73733 4.20962 7.62621 4.32629C7.51508 4.44296 7.51975 4.62758 7.63613 4.73871C8.38268 5.45008 7.87918 6.70833 6.84798 6.70833H3.56767C3.40667 6.70833 3.276 6.839 3.276 7C3.276 7.161 3.40667 7.29167 3.56767 7.29167Z" fill="#E9FF7A"/>
</svg>
