<svg width="13" height="17" viewBox="0 0 13 17" fill="none" xmlns="http://www.w3.org/2000/svg">
<path d="M12.5153 6.71291C12.7631 5.05699 11.5022 4.16681 9.77822 3.57291L10.3375 1.32976L8.97203 0.989445L8.42756 3.1735C8.0686 3.08404 7.69989 2.9997 7.33357 2.91606L7.8819 0.717561L6.51729 0.377319L5.9576 2.6197C5.66048 2.55205 5.36882 2.48516 5.08572 2.41477L5.08726 2.40776L3.20419 1.93761L2.84095 3.39595C2.84095 3.39595 3.85403 3.62816 3.83265 3.64253C4.38568 3.78058 4.48565 4.14655 4.46889 4.43666L3.83188 6.99215C3.87002 7.0019 3.91938 7.01585 3.97385 7.03765C3.92835 7.02637 3.87969 7.01396 3.82957 7.0019L2.93665 10.5818C2.869 10.7497 2.69744 11.0017 2.31085 10.9061C2.32452 10.9259 1.31838 10.6583 1.31838 10.6583L0.640564 12.2213L2.41742 12.6643C2.74799 12.7472 3.07196 12.8339 3.39089 12.9156L2.82581 15.1844L4.18965 15.5247L4.74933 13.2799C5.12189 13.381 5.48359 13.4744 5.83743 13.5623L5.27978 15.7965L6.64524 16.1368L7.21032 13.8722C9.53866 14.3128 11.2895 14.1351 12.0265 12.0292C12.6203 10.3336 11.9969 9.35555 10.7719 8.71769C11.664 8.51199 12.336 7.92517 12.5153 6.71291ZM9.39556 11.0877C8.97357 12.7833 6.11864 11.8667 5.19306 11.6368L5.94288 8.63096C6.86846 8.86197 9.83655 9.31937 9.39556 11.0877ZM9.8179 6.68844C9.43286 8.23078 7.05664 7.44716 6.28585 7.25506L6.96564 4.52885C7.73649 4.72095 10.2189 5.07957 9.8179 6.68844Z" fill="white"/>
</svg>
