<svg width="199" height="35" viewBox="0 0 199 35" fill="none" xmlns="http://www.w3.org/2000/svg">
<path d="M58.452 11.192V13.118H51.972V23H49.272V13.118H42.792V11.192H58.452ZM72.9781 15.26C72.6781 14.564 72.1081 14.012 71.2681 13.604C70.4281 13.184 69.4681 12.974 68.3881 12.974C66.6841 12.974 65.3101 13.376 64.2661 14.18C63.2341 14.972 62.7181 16.016 62.7181 17.312C62.7181 18.44 63.0781 19.376 63.7981 20.12C64.5301 20.852 65.4481 21.218 66.5521 21.218C67.4521 21.218 68.1901 20.996 68.7661 20.552C69.3541 20.096 69.6481 19.52 69.6481 18.824H65.7601V16.7H75.6961V22.982H72.8341V18.824H72.0421C72.0421 20.156 71.5021 21.266 70.4221 22.154C69.3421 23.042 67.9921 23.486 66.3721 23.486C64.4761 23.486 62.9401 22.922 61.7641 21.794C60.6001 20.666 60.0181 19.178 60.0181 17.33C60.0301 15.278 60.7741 13.664 62.2501 12.488C63.7261 11.3 65.7541 10.706 68.3341 10.706C70.2781 10.706 71.9101 11.114 73.2301 11.93C74.5501 12.746 75.3721 13.856 75.6961 15.26H72.9781ZM92.8323 22.946V24.17H77.3883V22.946H92.8323ZM105.144 11.192C106.704 11.192 107.934 11.51 108.834 12.146C109.734 12.782 110.184 13.598 110.184 14.594C110.184 15.146 109.962 15.632 109.518 16.052C109.074 16.472 108.444 16.784 107.628 16.988C108.444 17.216 109.074 17.576 109.518 18.068C109.962 18.56 110.184 19.124 110.184 19.76C110.184 20.708 109.734 21.488 108.834 22.1C107.934 22.7 106.704 23 105.144 23H94.5244V11.192H105.144ZM97.2064 13.352V15.89H105.378C106.014 15.89 106.536 15.782 106.944 15.566C107.364 15.338 107.574 15.056 107.574 14.72C107.574 14.324 107.364 14 106.944 13.748C106.536 13.484 106.014 13.352 105.378 13.352H97.2064ZM97.2064 18.05V20.84H105.378C106.014 20.84 106.536 20.708 106.944 20.444C107.364 20.168 107.574 19.82 107.574 19.4C107.574 19.016 107.364 18.698 106.944 18.446C106.536 18.182 106.014 18.05 105.378 18.05H97.2064ZM111.769 18.428V11.192H114.451V17.96C114.451 18.908 114.937 19.688 115.909 20.3C116.893 20.912 118.123 21.218 119.599 21.218C121.075 21.218 122.299 20.912 123.271 20.3C124.255 19.688 124.747 18.908 124.747 17.96V11.192H127.429V18.428C127.429 19.472 127.087 20.378 126.403 21.146C125.719 21.914 124.789 22.496 123.613 22.892C122.437 23.288 121.099 23.486 119.599 23.486C118.099 23.486 116.761 23.288 115.585 22.892C114.409 22.496 113.473 21.914 112.777 21.146C112.093 20.378 111.757 19.472 111.769 18.428ZM141.685 11.174H144.673L139.525 18.968H138.265V23H135.565V18.968H134.341L129.013 11.174H132.001L136.105 17.042H137.725L141.685 11.174ZM161.917 16.142V18.302H148.939V20.84H161.917V23H146.257V11.192H161.917V13.352H148.939V16.142H161.917ZM173.887 11.192C175.519 11.192 176.803 11.57 177.739 12.326C178.687 13.07 179.161 14.03 179.161 15.206C179.161 16.322 178.693 17.234 177.757 17.942C176.821 18.65 175.531 19.004 173.887 19.004H172.663V20.84H179.017V23H170.089V19.004H166.183V23H163.501V11.192H173.887ZM166.183 13.352V16.844H174.121C174.829 16.844 175.411 16.688 175.867 16.376C176.323 16.064 176.551 15.674 176.551 15.206C176.551 14.678 176.317 14.24 175.849 13.892C175.381 13.532 174.805 13.352 174.121 13.352H166.183Z" fill="white"/>
<path d="M31.786 9.98324C32.2015 11.6348 32.008 13.3807 31.2409 14.9012C30.4739 16.4217 29.1847 17.6149 27.6095 18.2622C26.0344 18.9095 24.2787 18.9676 22.6642 18.4258C21.0496 17.8841 19.6844 16.7787 18.8185 15.3122C20.3376 14.5393 21.5496 13.274 22.2564 11.723C22.9631 10.172 23.1229 8.42718 22.7095 6.77366C22.5734 6.22954 22.3761 5.7026 22.1214 5.20294C22.4702 5.0558 22.8299 4.9359 23.1972 4.84432C24.0998 4.61538 25.0387 4.56675 25.9601 4.70123C26.8815 4.83571 27.7673 5.15066 28.5668 5.62802C29.3663 6.10539 30.0638 6.73579 30.6192 7.48314C31.1747 8.23048 31.5773 9.08007 31.8039 9.98324H31.786Z" fill="white"/>
<path d="M28.4939 29.212C27.0573 30.1287 25.3384 30.4967 23.6524 30.2484C21.9664 30.0002 20.4265 29.1523 19.3151 27.8605C18.2037 26.5686 17.5953 24.9194 17.6016 23.2152C17.6079 21.5111 18.2284 19.8664 19.3493 18.5828C20.0501 19.2785 20.8813 19.8293 21.7952 20.2036C22.7091 20.5779 23.6878 20.7683 24.6754 20.7639C25.6629 20.7596 26.64 20.5606 27.5506 20.1783C28.4611 19.7961 29.2874 19.238 29.9821 18.5361C30.6645 19.3015 31.1722 20.2062 31.4701 21.1874C31.768 22.1685 31.849 23.2027 31.7074 24.2183C31.5658 25.2339 31.2051 26.2065 30.6502 27.0688C30.0953 27.9311 29.3595 28.6624 28.4939 29.212Z" fill="white"/>
<path d="M9.2687 32.0737C7.96202 30.9809 7.09298 29.4537 6.82089 27.7721C6.5488 26.0905 6.89189 24.3672 7.78727 22.9181C8.68264 21.4689 10.0703 20.391 11.6959 19.8819C13.3215 19.3728 15.0762 19.4667 16.6382 20.1463C15.8628 21.6638 15.6251 23.3995 15.9638 25.0696C16.3025 26.7397 17.1977 28.2456 18.503 29.3411C18.9324 29.7 19.4003 30.0103 19.898 30.2663C19.7058 30.5896 19.4875 30.8966 19.2453 31.1844C18.6489 31.8983 17.9176 32.4876 17.0933 32.9186C16.269 33.3497 15.3679 33.6141 14.4413 33.6967C13.5148 33.7793 12.581 33.6785 11.6935 33.4C10.8059 33.1215 9.98198 32.6708 9.2687 32.0737Z" fill="white"/>
<path d="M0.50422 14.7743C1.13749 13.1985 2.31589 11.9028 3.82464 11.1231C5.33339 10.3435 7.07204 10.132 8.72371 10.5271C10.3754 10.9222 11.8301 11.8976 12.8227 13.2756C13.8154 14.6535 14.2798 16.3423 14.1315 18.0341C12.4458 17.7699 10.7204 18.0877 9.23942 18.9351C7.75845 19.7824 6.61022 21.1089 5.98381 22.696C5.77535 23.2165 5.62736 23.7592 5.54272 24.3134C4.54324 24.0886 3.60422 23.6503 2.79014 23.0284C1.97605 22.4065 1.30617 21.6158 0.826487 20.7106C0.346803 19.8054 0.0686733 18.8071 0.0111882 17.7843C-0.0462969 16.7615 0.118226 15.7383 0.493462 14.7851L0.50422 14.7743Z" fill="white"/>
<path d="M14.3 1C16.0143 1.07642 17.6426 1.77263 18.8822 2.95924C20.1218 4.14585 20.8884 5.74214 21.0396 7.45146C21.1909 9.16079 20.7163 10.8669 19.7043 12.2527C18.6922 13.6385 17.2115 14.6097 15.5372 14.9859C15.251 13.3054 14.4031 11.7718 13.1322 10.6358C11.8613 9.4997 10.2426 8.82842 8.54072 8.73168C7.98075 8.70288 7.41931 8.73415 6.866 8.82492C6.82881 8.45197 6.82041 8.0767 6.8409 7.70246C6.89132 6.77362 7.1243 5.86383 7.52654 5.02509C7.92877 4.18635 8.49237 3.4351 9.18511 2.8143C9.87785 2.1935 10.6861 1.71532 11.5638 1.40708C12.4414 1.09885 13.3712 0.966614 14.3 1.01793V1Z" fill="white"/>
</svg>
