<svg width="35" height="35" viewBox="0 0 35 35" fill="none" xmlns="http://www.w3.org/2000/svg">
<path fill-rule="evenodd" clip-rule="evenodd" d="M0.44339 17.2346C0.44339 26.5173 7.96852 34.0425 17.2512 34.0425C26.534 34.0425 34.0591 26.5173 34.0591 17.2346C34.0591 7.95189 26.534 0.426758 17.2512 0.426758C7.96852 0.426758 0.44339 7.95189 0.44339 17.2346ZM14.1697 24.9376L14.4556 20.6532L14.4554 20.653L22.2493 13.6196C22.5913 13.3161 22.1746 13.168 21.7205 13.4434L12.1018 19.5117L7.94704 18.2149C7.04979 17.9402 7.04335 17.3237 8.14848 16.8804L24.3386 10.6375C25.0781 10.3018 25.7918 10.8151 25.5095 11.9469L22.7523 24.9398C22.5598 25.8631 22.0019 26.0839 21.229 25.6574L17.0289 22.5544L15.0101 24.5174C15.0037 24.5236 14.9974 24.5298 14.9911 24.5359C14.7653 24.7557 14.5785 24.9376 14.1697 24.9376Z" fill="white"/>
</svg>
