<svg width="86" height="87" viewBox="0 0 86 87" fill="none" xmlns="http://www.w3.org/2000/svg">
<path d="M30.1973 75.6991C30.7275 75.6991 31.1573 75.2693 31.1573 74.7391C31.1573 74.2089 30.7275 73.7791 30.1973 73.7791V75.6991ZM4.64967 74.7391H3.68967V75.6991H4.64967V74.7391ZM5.60967 52.6174C5.60967 52.0872 5.17986 51.6574 4.64967 51.6574C4.11947 51.6574 3.68967 52.0872 3.68967 52.6174H5.60967ZM84.9424 12.0609H85.9024V11.1009H84.9424V12.0609ZM22.606 7.02815L22.9841 7.91056L23.372 7.74437L23.5118 7.34622L22.606 7.02815ZM24.7228 1V0.0399999H24.0425L23.8171 0.681932L24.7228 1ZM32.0222 1L32.9271 0.679492L32.7006 0.0399999H32.0222V1ZM34.1573 7.02815L33.2523 7.34866L33.3938 7.74816L33.7844 7.91278L34.1573 7.02815ZM39.4493 9.2588L39.0764 10.1434L39.476 10.3119L39.8665 10.1234L39.4493 9.2588ZM45.1792 6.49359L45.8651 5.82188L45.3828 5.32941L44.762 5.629L45.1792 6.49359ZM50.2705 11.6922L51.1384 12.1025L51.4242 11.4981L50.9564 11.0204L50.2705 11.6922ZM47.5333 17.4807L46.6654 17.0703L46.4838 17.4544L46.646 17.8472L47.5333 17.4807ZM49.7413 22.8268L48.854 23.1932L49.017 23.5879L49.4192 23.7311L49.7413 22.8268ZM55.745 24.9652H56.705V24.2881L56.0671 24.0609L55.745 24.9652ZM55.745 32.3391L56.0714 33.242L56.705 33.0129V32.3391H55.745ZM49.7778 34.496L49.4515 33.5932L49.0525 33.7374L48.8905 34.1295L49.7778 34.496ZM47.5697 39.8421L46.6824 39.4756L46.5202 39.8684L46.7019 40.2525L47.5697 39.8421ZM50.307 45.6306L50.9856 46.3096L51.4639 45.8315L51.1748 45.2202L50.307 45.6306ZM45.161 50.7739L44.7438 51.6385L45.3576 51.9347L45.8396 51.4529L45.161 50.7739ZM39.431 48.0087L39.8482 47.1441L39.4577 46.9556L39.0581 47.1241L39.431 48.0087ZM34.139 50.2393L33.7661 49.3547L33.3731 49.5203L33.2326 49.9229L34.139 50.2393ZM32.0222 56.3043V57.2643H32.7039L32.9286 56.6207L32.0222 56.3043ZM24.7228 56.3043L23.8179 56.6249L24.0444 57.2643H24.7228V56.3043ZM22.5878 50.2762L23.4927 49.9557L23.3512 49.5562L22.9606 49.3916L22.5878 50.2762ZM17.2958 48.0455L17.6686 47.1609L17.2712 46.9934L16.882 47.1793L17.2958 48.0455ZM11.584 50.7739L10.9017 51.4493L11.3819 51.9343L11.9978 51.6402L11.584 50.7739ZM6.4745 45.6122L5.60664 45.2018L5.31919 45.8097L5.79224 46.2876L6.4745 45.6122ZM9.21175 39.8236L10.0796 40.234L10.2613 39.8499L10.0991 39.4572L9.21175 39.8236ZM7.00372 34.4776L7.89102 34.1111L7.72803 33.7165L7.32583 33.5732L7.00372 34.4776ZM1 32.3391H0.0399999V33.0163L0.677885 33.2435L1 32.3391ZM1 24.9652L0.673663 24.0624L0.0399999 24.2914V24.9652H1ZM6.96719 22.8083L7.29352 23.7112L7.69252 23.5669L7.85448 23.1748L6.96719 22.8083ZM9.17528 17.4622L10.0626 17.8287L10.2239 17.4381L10.0447 17.0553L9.17528 17.4622ZM6.4745 11.6922L5.79224 11.0168L5.32117 11.4927L5.60503 12.0991L6.4745 11.6922ZM11.584 6.53043L12.0013 5.66585L11.3839 5.36795L10.9017 5.85507L11.584 6.53043ZM17.314 9.29565L16.8968 10.1602L17.2904 10.3502L17.6921 10.1781L17.314 9.29565ZM59.3947 18.4748C58.8645 18.4748 58.4347 18.9046 58.4347 19.4348C58.4347 19.965 58.8645 20.3948 59.3947 20.3948V18.4748ZM84.9424 20.3948C85.4725 20.3948 85.9024 19.965 85.9024 19.4348C85.9024 18.9046 85.4725 18.4748 84.9424 18.4748V20.3948ZM30.1973 73.7791H4.64967V75.6991H30.1973V73.7791ZM5.60967 74.7391V52.6174H3.68967V74.7391H5.60967ZM37.4967 79.3861H41.1463V77.4661H37.4967V79.3861ZM44.796 79.3861H48.4457V77.4661H44.796V79.3861ZM52.0953 79.3861H63.0443V77.4661H52.0953V79.3861ZM66.694 79.3861H70.3437V77.4661H66.694V79.3861ZM73.9934 79.3861H77.643V77.4661H73.9934V79.3861ZM37.4967 72.0122H41.1463V70.0922H37.4967V72.0122ZM44.796 72.0122H48.4457V70.0922H44.796V72.0122ZM52.0953 72.0122H55.745V70.0922H52.0953V72.0122ZM59.3947 72.0122H63.0443V70.0922H59.3947V72.0122ZM66.694 72.0122H70.3437V70.0922H66.694V72.0122ZM73.9934 72.0122H77.643V70.0922H73.9934V72.0122ZM44.796 64.6383H81.2927V62.7183H44.796V64.6383ZM81.2927 64.6383C82.0029 64.6383 82.686 64.9232 83.1911 65.4335L84.5557 64.0828C83.6919 63.2102 82.5184 62.7183 81.2927 62.7183V64.6383ZM83.1911 65.4335C83.6966 65.9442 83.9824 66.6388 83.9824 67.3652H85.9024C85.9024 66.1359 85.419 64.955 84.5557 64.0828L83.1911 65.4335ZM83.9824 67.3652V82.113H85.9024V67.3652H83.9824ZM83.9824 82.113C83.9824 82.8394 83.6966 83.5341 83.1911 84.0448L84.5557 85.3955C85.419 84.5233 85.9024 83.3424 85.9024 82.113H83.9824ZM83.1911 84.0448C82.686 84.5551 82.0029 84.84 81.2927 84.84V86.76C82.5184 86.76 83.6919 86.268 84.5557 85.3955L83.1911 84.0448ZM81.2927 84.84H33.847V86.76H81.2927V84.84ZM33.847 84.84C33.1368 84.84 32.4537 84.5551 31.9486 84.0448L30.584 85.3955C31.4478 86.268 32.6213 86.76 33.847 86.76V84.84ZM31.9486 84.0448C31.4431 83.5341 31.1573 82.8394 31.1573 82.113H29.2373C29.2373 83.3424 29.7207 84.5233 30.584 85.3955L31.9486 84.0448ZM31.1573 82.113V67.3652H29.2373V82.113H31.1573ZM31.1573 67.3652C31.1573 66.6388 31.4431 65.9442 31.9486 65.4335L30.584 64.0828C29.7207 64.955 29.2373 66.1359 29.2373 67.3652H31.1573ZM31.9486 65.4335C32.4537 64.9232 33.1368 64.6383 33.847 64.6383V62.7183C32.6213 62.7183 31.4478 63.2102 30.584 64.0828L31.9486 65.4335ZM33.847 64.6383H41.1463V62.7183H33.847V64.6383ZM67.654 63.6783V40.6348H65.734V63.6783H67.654ZM67.654 40.6348C67.654 39.664 68.0359 38.7349 68.7125 38.0513L67.348 36.7006C66.3135 37.7456 65.734 39.161 65.734 40.6348H67.654ZM68.7125 38.0513C69.3888 37.3681 70.3039 36.9861 71.2561 36.9861V35.0661C69.7884 35.0661 68.3828 35.6552 67.348 36.7006L68.7125 38.0513ZM71.2561 36.9861C72.2083 36.9861 73.1234 37.3681 73.7997 38.0513L75.1642 36.7006C74.1294 35.6552 72.7238 35.0661 71.2561 35.0661V36.9861ZM73.7997 38.0513C74.4763 38.7349 74.8582 39.664 74.8582 40.6348H76.7782C76.7782 39.161 76.1987 37.7456 75.1642 36.7006L73.7997 38.0513ZM74.8582 40.6348V53.5391H76.7782V40.6348H74.8582ZM74.8582 53.5391C74.8582 55.0129 75.4376 56.4283 76.4721 57.4733L77.8367 56.1226C77.16 55.4391 76.7782 54.5099 76.7782 53.5391H74.8582ZM76.4721 57.4733C77.507 58.5187 78.9125 59.1078 80.3803 59.1078V57.1878C79.4281 57.1878 78.513 56.8058 77.8367 56.1226L76.4721 57.4733ZM80.3803 59.1078C81.848 59.1078 83.2536 58.5187 84.2884 57.4733L82.9239 56.1226C82.2476 56.8058 81.3324 57.1878 80.3803 57.1878V59.1078ZM84.2884 57.4733C85.3229 56.4283 85.9024 55.0129 85.9024 53.5391H83.9824C83.9824 54.5099 83.6005 55.4391 82.9239 56.1226L84.2884 57.4733ZM85.9024 53.5391V12.0609H83.9824V53.5391H85.9024ZM84.9424 11.1009H49.3581V13.0209H84.9424V11.1009ZM23.5118 7.34622L25.6286 1.31807L23.8171 0.681932L21.7002 6.71009L23.5118 7.34622ZM24.7228 1.96H32.0222V0.0399999H24.7228V1.96ZM31.1173 1.32051L33.2523 7.34866L35.0622 6.70765L32.9271 0.679492L31.1173 1.32051ZM33.7844 7.91278L39.0764 10.1434L39.8221 8.37418L34.5301 6.14353L33.7844 7.91278ZM39.8665 10.1234L45.5965 7.35817L44.762 5.629L39.032 8.39422L39.8665 10.1234ZM44.4933 7.1653L49.5847 12.3639L50.9564 11.0204L45.8651 5.82188L44.4933 7.1653ZM49.4027 11.2818L46.6654 17.0703L48.4011 17.8911L51.1384 12.1025L49.4027 11.2818ZM46.646 17.8472L48.854 23.1932L50.6286 22.4603L48.4206 17.1142L46.646 17.8472ZM49.4192 23.7311L55.4229 25.8696L56.0671 24.0609L50.0634 21.9224L49.4192 23.7311ZM54.785 24.9652V32.3391H56.705V24.9652H54.785ZM55.4187 31.4363L49.4515 33.5932L50.1042 35.3989L56.0714 33.242L55.4187 31.4363ZM48.8905 34.1295L46.6824 39.4756L48.457 40.2086L50.6651 34.8625L48.8905 34.1295ZM46.7019 40.2525L49.4391 46.041L51.1748 45.2202L48.4376 39.4317L46.7019 40.2525ZM49.6283 44.9516L44.4824 50.0949L45.8396 51.4529L50.9856 46.3096L49.6283 44.9516ZM45.5782 49.9093L39.8482 47.1441L39.0138 48.8733L44.7438 51.6385L45.5782 49.9093ZM39.0581 47.1241L33.7661 49.3547L34.5119 51.1239L39.8039 48.8933L39.0581 47.1241ZM33.2326 49.9229L31.1158 55.988L32.9286 56.6207L35.0454 50.5556L33.2326 49.9229ZM32.0222 55.3443H24.7228V57.2643H32.0222V55.3443ZM25.6278 55.9838L23.4927 49.9557L21.6828 50.5967L23.8179 56.6249L25.6278 55.9838ZM22.9606 49.3916L17.6686 47.1609L16.9229 48.9302L22.2149 51.1608L22.9606 49.3916ZM16.882 47.1793L11.1702 49.9077L11.9978 51.6402L17.7095 48.9118L16.882 47.1793ZM12.2663 50.0985L7.15676 44.9368L5.79224 46.2876L10.9017 51.4493L12.2663 50.0985ZM7.34236 46.0226L10.0796 40.234L8.34389 39.4133L5.60664 45.2018L7.34236 46.0226ZM10.0991 39.4572L7.89102 34.1111L6.11642 34.844L8.32445 40.1901L10.0991 39.4572ZM7.32583 33.5732L1.32212 31.4348L0.677885 33.2435L6.6816 35.3819L7.32583 33.5732ZM1.96 32.3391V24.9652H0.0399999V32.3391H1.96ZM1.32634 25.868L7.29352 23.7112L6.64085 21.9055L0.673663 24.0624L1.32634 25.868ZM7.85448 23.1748L10.0626 17.8287L8.28798 17.0958L6.07989 22.4418L7.85448 23.1748ZM10.0447 17.0553L7.34397 11.2852L5.60503 12.0991L8.30581 17.8692L10.0447 17.0553ZM7.15676 12.3675L12.2663 7.2058L10.9017 5.85507L5.79224 11.0168L7.15676 12.3675ZM11.1668 7.39502L16.8968 10.1602L17.7313 8.43106L12.0013 5.66585L11.1668 7.39502ZM17.6921 10.1781L22.9841 7.91056L22.2279 6.14574L16.9359 8.41324L17.6921 10.1781ZM34.2556 29.0762C34.2556 32.3732 31.6125 35.0292 28.3725 35.0292V36.9492C32.6912 36.9492 36.1756 33.4151 36.1756 29.0762H34.2556ZM28.3725 35.0292C25.1325 35.0292 22.4894 32.3732 22.4894 29.0762H20.5694C20.5694 33.4151 24.0538 36.9492 28.3725 36.9492V35.0292ZM22.4894 29.0762C22.4894 25.7792 25.1325 23.1231 28.3725 23.1231V21.2031C24.0538 21.2031 20.5694 24.7372 20.5694 29.0762H22.4894ZM28.3725 23.1231C31.6125 23.1231 34.2556 25.7792 34.2556 29.0762H36.1756C36.1756 24.7372 32.6912 21.2031 28.3725 21.2031V23.1231ZM59.3947 20.3948H84.9424V18.4748H59.3947V20.3948Z" fill="url(#paint0_linear_1_988)"/>
<defs>
<linearGradient id="paint0_linear_1_988" x1="42.9712" y1="1" x2="42.9712" y2="85.8" gradientUnits="userSpaceOnUse">
<stop stop-color="#5A2FED"/>
<stop offset="1" stop-color="#C67EFF"/>
</linearGradient>
</defs>
</svg>
