<svg width="94" height="89" viewBox="0 0 94 89" fill="none" xmlns="http://www.w3.org/2000/svg">
<path d="M13.2307 21.5928H21.3845L29.5383 33.9484H35.6536M13.2307 21.5928C13.2307 22.8146 12.872 24.009 12.2001 25.025C11.5281 26.0409 10.573 26.8327 9.4556 27.3003C8.33816 27.7679 7.10857 27.8902 5.92231 27.6519C4.73605 27.4135 3.64638 26.8251 2.79114 25.9611C1.93589 25.0972 1.35347 23.9964 1.11751 22.798C0.881546 21.5996 1.00265 20.3574 1.4655 19.2286C1.92836 18.0997 2.71216 17.1349 3.71782 16.4561C4.72349 15.7772 5.90584 15.4149 7.11534 15.4149C8.73723 15.4149 10.2927 16.0658 11.4396 17.2244C12.5864 18.3829 13.2307 19.9543 13.2307 21.5928ZM13.2307 44.2448C13.2307 45.4666 12.872 46.6611 12.2001 47.677C11.5281 48.693 10.573 49.4848 9.4556 49.9524C8.33816 50.4199 7.10857 50.5423 5.92231 50.3039C4.73605 50.0655 3.64638 49.4772 2.79114 48.6132C1.93589 47.7492 1.35347 46.6484 1.11751 45.45C0.881546 44.2516 1.00265 43.0095 1.4655 41.8806C1.92836 40.7518 2.71216 39.7869 3.71782 39.1081C4.72349 38.4293 5.90584 38.067 7.11534 38.067C8.73723 38.067 10.2927 38.7178 11.4396 39.8764C12.5864 41.035 13.2307 42.6063 13.2307 44.2448ZM13.2307 44.2448H47.8843M29.5383 11.2964L37.6921 23.652H47.8843M13.2307 66.8968C13.2307 65.675 12.872 64.4805 12.2001 63.4646C11.5281 62.4486 10.573 61.6568 9.4556 61.1893C8.33816 60.7217 7.10857 60.5993 5.92231 60.8377C4.73605 61.0761 3.64638 61.6644 2.79114 62.5284C1.93589 63.3924 1.35347 64.4932 1.11751 65.6916C0.881546 66.89 1.00265 68.1321 1.4655 69.261C1.92836 70.3898 2.71216 71.3547 3.71782 72.0335C4.72349 72.7123 5.90584 73.0746 7.11534 73.0746C8.73723 73.0746 10.2927 72.4238 11.4396 71.2652C12.5864 70.1066 13.2307 68.5353 13.2307 66.8968ZM13.2307 66.8968L21.3845 66.8968L29.5383 54.5412H68.2688V60.4925L91.6498 44.4919L68.2688 27.5441V33.9484H47.8843M29.5383 77.1932L37.6921 64.8375H47.8843M60.115 44.2448H64.1919M51.9612 44.2448H56.0381M51.9612 23.652H56.0381M51.9612 64.8375H56.0381M43.8074 33.9484H39.7305M31.5767 7.17783C31.5767 8.39969 31.2181 9.59412 30.5461 10.6101C29.8742 11.626 28.9191 12.4178 27.8016 12.8854C26.6842 13.353 25.4546 13.4753 24.2683 13.2369C23.0821 12.9986 21.9924 12.4102 21.1372 11.5462C20.2819 10.6822 19.6995 9.58143 19.4635 8.38305C19.2276 7.18467 19.3487 5.94251 19.8115 4.81366C20.2744 3.68481 21.0582 2.71997 22.0639 2.04114C23.0695 1.36231 24.2519 1 25.4614 1C27.0833 1 28.6387 1.65087 29.7856 2.80944C30.9324 3.96801 31.5767 5.53937 31.5767 7.17783ZM31.5767 81.3117C31.5767 80.0899 31.2181 78.8955 30.5461 77.8795C29.8742 76.8636 28.9191 76.0718 27.8016 75.6042C26.6842 75.1366 25.4546 75.0143 24.2683 75.2526C23.0821 75.491 21.9924 76.0794 21.1372 76.9434C20.2819 77.8073 19.6995 78.9081 19.4635 80.1065C19.2276 81.3049 19.3487 82.5471 19.8115 83.6759C20.2744 84.8048 21.0582 85.7696 22.0639 86.4484C23.0695 87.1273 24.2519 87.4896 25.4614 87.4896C27.0833 87.4896 28.6387 86.8387 29.7856 85.6801C30.9324 84.5216 31.5767 82.9502 31.5767 81.3117Z" stroke="url(#paint0_linear_1_973)" stroke-width="1.92" stroke-miterlimit="10"/>
<defs>
<linearGradient id="paint0_linear_1_973" x1="46.3249" y1="1" x2="46.3249" y2="87.4896" gradientUnits="userSpaceOnUse">
<stop stop-color="#5A2FED"/>
<stop offset="1" stop-color="#C67EFF"/>
</linearGradient>
</defs>
</svg>
