<svg width="34" height="35" viewBox="0 0 34 35" fill="none" xmlns="http://www.w3.org/2000/svg">
<path fill-rule="evenodd" clip-rule="evenodd" d="M17.1927 0.426758C7.91002 0.426758 0.384888 7.95189 0.384888 17.2346C0.384888 26.5173 7.91002 34.0425 17.1927 34.0425C26.4755 34.0425 34.0006 26.5173 34.0006 17.2346C34.0006 7.95189 26.4755 0.426758 17.1927 0.426758ZM18.7344 23.0704C18.5604 23.2539 18.2207 23.291 18.2207 23.291H17.0955C17.0955 23.291 14.6132 23.4374 12.4265 21.2032C10.0417 18.7657 7.93602 13.9295 7.93602 13.9295C7.93602 13.9295 7.81449 13.6123 7.94615 13.4595C8.09439 13.2869 8.49859 13.276 8.49859 13.276L11.1881 13.2589C11.1881 13.2589 11.4413 13.2995 11.6227 13.4306C11.7727 13.5391 11.8565 13.7406 11.8565 13.7406C11.8565 13.7406 12.2911 14.8197 12.8666 15.7958C13.9908 17.7019 14.5138 18.1186 14.895 17.9143C15.4511 17.617 15.2844 15.2201 15.2844 15.2201C15.2844 15.2201 15.2946 14.3507 15.0045 13.9629C14.7799 13.6629 14.3563 13.5752 14.1694 13.5508C14.0175 13.5309 14.2661 13.1857 14.5883 13.0311C15.0727 12.7988 15.9271 12.7853 16.9371 12.7952C17.7244 12.8034 17.9509 12.8513 18.2584 12.9245C18.9721 13.0935 18.9499 13.6353 18.9018 14.8047C18.8874 15.1544 18.8707 15.5602 18.8707 16.029C18.8707 16.1343 18.8676 16.2466 18.8643 16.3621C18.8477 16.9612 18.8285 17.6472 19.2307 17.9026C19.4369 18.0327 19.9406 17.9215 21.2011 15.8211C21.7986 14.8251 22.2461 13.6547 22.2461 13.6547C22.2461 13.6547 22.3446 13.446 22.4966 13.3565C22.6522 13.2652 22.8621 13.2932 22.8621 13.2932L25.6924 13.276C25.6924 13.276 26.5432 13.1757 26.6804 13.5535C26.8249 13.9485 26.3627 14.8721 25.2063 16.3851C24.1093 17.8206 23.5754 18.3492 23.6245 18.8166C23.6603 19.1582 24.0073 19.4671 24.6732 20.0735C26.0633 21.3404 26.4359 22.0069 26.5254 22.167C26.5328 22.1803 26.5383 22.1901 26.5423 22.1965C27.1656 23.2114 25.8508 23.291 25.8508 23.291L23.3363 23.3253C23.3363 23.3253 22.7967 23.4301 22.0859 22.9511C21.7136 22.7004 21.3497 22.291 21.0032 21.9009C20.4739 21.3053 19.985 20.7551 19.5677 20.8851C18.867 21.1038 18.8882 22.5851 18.8882 22.5851C18.8882 22.5851 18.8937 22.9023 18.7344 23.0704Z" fill="white"/>
</svg>
